<?xml version="1.0"?>
<svg xmlns="http://www.w3.org/2000/svg" viewBox="0 0 26 26" enable-background="new 0 0 26 26">
    <path d="M 13.125 0.1875 C 12.04995 0.20115198 11.190092 0.77502773 10.6875 1.34375 C 10.369829 1.7032194 10.355843 1.8316367 10.21875 2.09375 C 9.8837522 1.9682236 9.7351347 1.8312734 9.125 1.8125 C 8.6111001 1.7966877 7.9927758 1.8842465 7.4375 2.21875 C 7.0117408 2.4752314 6.6456701 2.8728247 6.375 3.40625 C 5.7089286 3.5304824 5.2132303 3.9882604 4.90625 4.4375 C 4.8510363 4.5183006 4.8226555 4.5853505 4.78125 4.65625 C 4.0452018 3.7342647 1.7516264 2.4525558 0.1875 3 C 1.2012015 3.7240725 1.7915894 4.9106684 2.15625 5.78125 C 2.1031708 5.7962796 2.0535162 5.7946613 2 5.8125 C 1.4853887 5.9840371 0.95895204 6.3184133 0.625 6.875 C -0.04021391 7.9836899 0.36192958 9.2006009 0.8125 10 C 1.0812038 10.476733 1.2305982 10.57377 1.4375 10.8125 C 1.230096 11.061683 1.0768858 11.154111 0.84375 11.65625 C 0.64589963 12.082389 0.48687133 12.609839 0.5 13.1875 C 0.5131287 13.765161 0.72095051 14.404301 1.1875 14.9375 C 2.111275 15.993243 3.4551375 16.026384 4.34375 15.78125 C 4.7771381 15.661695 4.8230195 15.58563 5.09375 15.4375 C 5.2386636 15.740589 5.2067347 15.862575 5.53125 16.21875 C 5.8104946 16.525238 6.2051676 16.827803 6.6875 17 C 10.065161 20.299244 9.5191494 25.860342 12.15625 25.90625 C 12.133982 25.934338 12.115938 25.971973 12.09375 26 L 14 26 C 14 26 19.1875 23.79375 20.6875 17.59375 C 22.1875 11.39375 24.0125 9.5875 25.8125 8.1875 C 24.209313 8.0480925 22.697795 8.5585813 21.59375 9.34375 C 21.353093 9.029435 21.08277 8.7432432 20.8125 8.5 C 21.1125 7.1 21.00625 5.2875 19.40625 4.1875 C 19.328997 4.1256974 19.242314 4.0835037 19.15625 4.03125 C 18.969728 3.5722839 18.659644 3.2074117 18.3125 2.96875 C 17.870278 2.6647224 17.399266 2.5302523 16.96875 2.46875 C 16.504971 2.4024958 16.394104 2.4727797 16.09375 2.5 C 16.042017 2.253347 16.090808 2.1962172 15.9375 1.875 C 15.60132 1.1706224 14.843995 0.3604477 13.625 0.21875 C 13.61392 0.217462 13.6049 0.219924 13.59375 0.21875 C 13.431565 0.19624333 13.278579 0.18554972 13.125 0.1875 z M 12.90625 1.78125 C 13.047153 1.760237 13.203502 1.7555254 13.375 1.78125 A 0.80008001 0.80008001 0 0 0 13.40625 1.78125 C 14.067798 1.850887 14.314235 2.1732786 14.5 2.5625 C 14.685765 2.9517214 14.6875 3.34375 14.6875 3.34375 A 0.80008001 0.80008001 0 0 0 15.46875 4.125 C 15.299972 4.2127184 15.139045 4.3135534 15 4.40625 C 14.3 4.00625 13.4 3.59375 12.5 3.59375 C 11.8 3.59375 11.09375 3.7875 10.59375 4.1875 C 9.09375 5.2875 9.10625 7.10625 9.40625 8.40625 C 9.069039 8.6656431 8.7542183 8.9580628 8.5 9.28125 C 8.3893996 9.1169256 8.2581731 8.955 8.09375 8.8125 C 7.79375 8.5125 7.3125 8.3125 6.8125 8.3125 C 5.6125 8.3125 4.6875 9.20625 4.6875 10.40625 C 4.6875 11.60625 5.7125 12.5 6.8125 12.5 C 7.2035256 12.5 7.5214359 12.407324 7.8125 12.25 C 7.8435079 12.394959 7.8565182 12.538305 7.90625 12.6875 C 8.3795833 14.202167 9.6502375 15.10607 11.3125 15.28125 C 12.088555 17.126218 12.276832 19.361838 12.25 21.25 C 12.095906 20.698978 11.942777 20.181619 11.8125 19.8125 C 11.375 18.325 10.911133 16.598242 9.46875 15.65625 A 0.80008001 0.80008001 0 0 0 8.21875 15.3125 C 7.7741266 15.563809 7.514257 15.575312 7.3125 15.53125 C 7.110743 15.48719 6.8990128 15.354099 6.71875 15.15625 C 6.3582244 14.760551 6.15625 14.15625 6.15625 14.15625 A 0.80008001 0.80008001 0 0 0 4.9375 13.75 C 4.9375 13.75 4.4676375 14.063884 3.90625 14.21875 C 3.3448625 14.373616 2.882475 14.419257 2.40625 13.875 C 2.1727995 13.608199 2.0993713 13.403589 2.09375 13.15625 C 2.08813 12.908911 2.18535 12.617611 2.3125 12.34375 C 2.5667993 11.796029 2.96875 11.375 2.96875 11.375 A 0.80008001 0.80008001 0 0 0 2.96875 10.21875 C 2.96875 10.21875 2.5431796 9.7943509 2.21875 9.21875 C 1.8943204 8.6431491 1.7652139 8.1100601 2 7.71875 C 2.116048 7.5253367 2.2552363 7.4253379 2.5 7.34375 C 2.7447637 7.2621621 3.0775846 7.2343493 3.40625 7.25 C 4.0635808 7.281301 4.65625 7.46875 4.65625 7.46875 A 0.80008001 0.80008001 0 0 0 5.6875 6.8125 C 5.6875 6.8125 5.8661307 5.8285283 6.21875 5.3125 C 6.3585818 5.1078681 6.4730804 5.0341915 6.59375 5 A 0.80008001 0.80008001 0 0 0 7.09375 5.0625 C 7.2912712 5.1494225 7.5584078 5.3099087 7.875 5.59375 A 0.80008001 0.80008001 0 1 0 8.9375 4.40625 C 8.6411888 4.1405917 8.3521968 3.9466933 8.0625 3.78125 C 8.1306368 3.7154345 8.2121768 3.6353603 8.28125 3.59375 C 8.5040992 3.4595035 8.7638999 3.4283123 9.0625 3.4375 C 9.6597003 3.4558754 10.25 3.71875 10.25 3.71875 A 0.80008001 0.80008001 0 0 0 11.34375 3.28125 C 11.34375 3.28125 11.535711 2.8255443 11.90625 2.40625 C 12.184154 2.0917793 12.483542 1.844289 12.90625 1.78125 z M 12.5 5.1875 C 13.7 5.1875 15.09375 6.40625 15.09375 6.40625 C 15.09375 6.40625 16.2 5.1875 17.5 5.1875 C 17.688361 5.1875 17.907299 5.2649061 18.125 5.34375 A 0.80008001 0.80008001 0 0 0 18.21875 5.375 C 18.227681 5.3787667 18.241133 5.3710957 18.25 5.375 A 0.80008001 0.80008001 0 0 0 18.28125 5.40625 C 18.354095 5.4403489 18.43459 5.4563934 18.5 5.5 C 20 6.5 18.8125 9.09375 18.8125 9.09375 C 18.8125 9.09375 21.1875 10.1875 20.6875 12.1875 C 20.3875 13.3875 19.1125 13.6875 18.3125 13.6875 C 17.8125 13.6875 17.40625 13.59375 17.40625 13.59375 C 17.40625 13.59375 17 16.40625 15 16.40625 C 13 16.40625 12.59375 13.59375 12.59375 13.59375 C 12.59375 13.59375 12.1875 13.6875 11.6875 13.6875 C 10.8875 13.6875 9.7125 13.4875 9.3125 12.1875 C 8.6125 10.1875 11.1875 9.09375 11.1875 9.09375 C 11.1875 9.09375 10 6.5 11.5 5.5 C 11.8 5.3 12.1 5.1875 12.5 5.1875 z M 15 8.40625 C 13.840202 8.40625 12.90625 9.3402021 12.90625 10.5 C 12.90625 11.659798 13.840202 12.59375 15 12.59375 C 16.159798 12.59375 17.09375 11.659798 17.09375 10.5 C 17.09375 9.3402021 16.159798 8.40625 15 8.40625 z M 16.78125 17.5625 C 16.025537 19.909961 15.180664 21.638281 14.3125 23 C 14.903222 21.194912 15.452648 19.316265 15.53125 17.96875 C 16.002923 17.912157 16.416656 17.771966 16.78125 17.5625 z"/>
</svg>
